<svg xmlns="http://www.w3.org/2000/svg" viewBox="0 0 200 200" width="220" height="220">
	<circle class="ring-outer" cx="100" cy="100" r="94" fill="none" stroke="#ff9900" stroke-width="1.5" stroke-dasharray="8 4" />
	<circle class="ring-static" cx="100" cy="100" r="88" fill="none" stroke="#ff9900" />
	<g class="ticks" stroke="#ff9900" stroke-width="1">
		<line x1="174" y1="100" x2="188" y2="100" />
		<line x1="180.75" y1="114.24" x2="186.66" y2="115.28" />
		<line x1="177.05" y1="128.05" x2="182.69" y2="130.1" />
		<line x1="171.01" y1="141" x2="176.21" y2="144" />
		<line x1="162.82" y1="152.71" x2="167.41" y2="156.57" />
		<line x1="152.71" y1="162.82" x2="156.57" y2="167.41" />
		<line x1="141" y1="171.01" x2="144" y2="176.21" />
		<line x1="128.05" y1="177.05" x2="130.1" y2="182.69" />
		<line x1="114.24" y1="180.75" x2="115.28" y2="186.66" />
		<line x1="100" y1="174" x2="100" y2="188" />
		<line x1="85.76" y1="180.75" x2="84.72" y2="186.66" />
		<line x1="71.95" y1="177.05" x2="69.9" y2="182.69" />
		<line x1="59" y1="171.01" x2="56" y2="176.21" />
		<line x1="47.29" y1="162.82" x2="43.43" y2="167.41" />
		<line x1="37.18" y1="152.71" x2="32.59" y2="156.57" />
		<line x1="28.99" y1="141" x2="23.79" y2="144" />
		<line x1="22.95" y1="128.05" x2="17.31" y2="130.1" />
		<line x1="19.25" y1="114.24" x2="13.34" y2="115.28" />
		<line x1="26" y1="100" x2="12" y2="100" />
		<line x1="19.25" y1="85.76" x2="13.34" y2="84.72" />
		<line x1="22.95" y1="71.95" x2="17.31" y2="69.9" />
		<line x1="28.99" y1="59" x2="23.79" y2="56" />
		<line x1="37.18" y1="47.29" x2="32.59" y2="43.43" />
		<line x1="47.29" y1="37.18" x2="43.43" y2="32.59" />
		<line x1="59" y1="28.99" x2="56" y2="23.79" />
		<line x1="71.95" y1="22.95" x2="69.9" y2="17.31" />
		<line x1="85.76" y1="19.25" x2="84.72" y2="13.34" />
		<line x1="100" y1="26" x2="100" y2="12" />
		<line x1="114.24" y1="19.25" x2="115.28" y2="13.34" />
		<line x1="128.05" y1="22.95" x2="130.1" y2="17.31" />
		<line x1="141" y1="28.99" x2="144" y2="23.79" />
		<line x1="152.71" y1="37.18" x2="156.57" y2="32.59" />
		<line x1="162.82" y1="47.29" x2="167.41" y2="43.43" />
		<line x1="171.01" y1="59" x2="176.21" y2="56" />
		<line x1="177.05" y1="71.95" x2="182.69" y2="69.9" />
		<line x1="180.75" y1="85.76" x2="186.66" y2="84.72" />
	</g>
	<g class="cardinals" stroke="#ff9900" stroke-width="2">
		<line x1="192" y1="100" x2="204" y2="100" />
		<line x1="100" y1="192" x2="100" y2="204" />
		<line x1="8" y1="100" x2="-4" y2="100" />
		<line x1="100" y1="8" x2="100" y2="-4" />
	</g>
	<circle class="ring-inner" cx="100" cy="100" r="62" fill="none" stroke="#ff9900" stroke-width="1" />
	<circle class="ring-core" cx="100" cy="100" r="30" fill="none" stroke="#ff9900" stroke-width="1" stroke-dasharray="3 6" />
	<g class="crosshair" stroke="#ff9900" stroke-width="1">
		<line x1="100" y1="70" x2="100" y2="130" />
		<line x1="70" y1="100" x2="130" y2="100" />
	</g>
	<circle class="core-dot" cx="100" cy="100" r="2.5" fill="#ff9900" />
</svg>
